<svg xmlns="http://www.w3.org/2000/svg" viewBox="0 0 512 512" id="concrete-mixter">
  <circle cx="99.55" cy="391.2" r="39.113"></circle>
  <circle cx="423.625" cy="391.2" r="39.113"></circle>
  <path fill-rule="evenodd" d="m492.91 295.1-29.61-22.354a20.986 20.986 0 0 1-7.822-11.735L444.3 222.458a45.434 45.434 0 0 0-43.023-32.408H345.4V391.2h22.35a55.875 55.875 0 0 1 111.75 0 22.416 22.416 0 0 0 22.35-22.35v-55.875c0-7.265-3.35-13.409-8.94-17.875zm-125.16-26.825V212.4h33.525c10.057 0 19 6.7 21.232 16.2l11.175 39.673zM10.15 391.2h33.525a55.875 55.875 0 0 1 111.75 0H323.05v-78.225H10.15zm33.525-100.573H77.2v-65.373a684.32 684.32 0 0 0 70.4 43.023l63.14-173.213C169.15 83.613 79.39 80.253 57.644 82.213l-36.319 99.458c6.705 6.144 14.527 12.292 22.35 18.439zm265.406-63.139c17.88-49.171-.559-101.132-65.374-124.042l-65.374 178.8c51.177 17.967 108.057 8.381 130.748-54.758z"></path>
</svg>
