<?xml version="1.0" encoding="utf-8"?>
<!-- Generator: Adobe Illustrator 16.0.0, SVG Export Plug-In . SVG Version: 6.00 Build 0)  -->
<!DOCTYPE svg PUBLIC "-//W3C//DTD SVG 1.1//EN" "http://www.w3.org/Graphics/SVG/1.1/DTD/svg11.dtd">
<svg version="1.1" id="Capa_1" xmlns="http://www.w3.org/2000/svg" xmlns:xlink="http://www.w3.org/1999/xlink" x="0px" y="0px"
	 width="75px" height="75px" viewBox="0 0 75 75" enable-background="new 0 0 75 75" xml:space="preserve">
<path display="none" fill-rule="evenodd" clip-rule="evenodd" fill="#FFFFFF" d="M37.586,0.66c20.291,0,36.741,16.451,36.741,36.741
	c0,20.286-16.45,36.732-36.741,36.732C17.301,74.133,0.85,57.687,0.85,37.4C0.85,17.11,17.301,0.66,37.586,0.66 M37.586,2.609
	c19.21,0,34.791,15.579,34.791,34.792c0,19.206-15.581,34.787-34.791,34.787c-19.209,0-34.787-15.581-34.787-34.787
	C2.799,18.188,18.376,2.609,37.586,2.609z M20.206,60.018l34.765-28.788H40.719l9.732-16.451l-30.07,21.739h16.164L20.206,60.018z"
	/>
<path display="none" fill-rule="evenodd" clip-rule="evenodd" fill="#FFFFFF" d="M37.586,0.657
	c20.291,0,36.741,16.451,36.741,36.741c0,20.286-16.45,36.736-36.741,36.736c-20.285,0-36.736-16.45-36.736-36.736
	C0.85,17.108,17.301,0.657,37.586,0.657 M37.586,2.607c19.21,0,34.791,15.579,34.791,34.792c0,19.206-15.581,34.786-34.791,34.786
	c-19.206,0-34.787-15.58-34.787-34.786C2.799,18.186,18.38,2.607,37.586,2.607z M41.049,45.316c2.961,0,5.361,2.4,5.361,5.362
	c0,2.961-2.4,5.36-5.361,5.36c-2.962,0-5.365-2.399-5.365-5.36C35.684,47.717,38.087,45.316,41.049,45.316z M19.906,21.833
	l2.652-0.061c0.553-0.013,1.174,0.503,1.294,1.047l5.854,26.996c0.145,0.67,0.856,1.354,1.542,1.354l0.998,0.005
	c-0.008-0.167-0.013-0.33-0.013-0.496c0-4.864,3.947-8.815,8.815-8.815c4.866,0,8.813,3.951,8.813,8.815
	c0,0.184-0.008,0.371-0.021,0.551h0.636c0.496,0.005,1.062-0.436,1.174-0.92l5.116-22.251c0.15-0.664-0.31-1.789-0.986-1.789H27.983
	l-0.866-4.313c-0.338-1.69-2.468-3.206-4.191-3.206h-3.02C17.935,18.751,17.81,21.882,19.906,21.833z"/>
<path display="none" fill-rule="evenodd" clip-rule="evenodd" fill="#FFFFFF" d="M37.588,0.656
	c20.287,0,36.737,16.453,36.737,36.743c0,20.286-16.45,36.736-36.737,36.736c-20.29,0-36.736-16.45-36.736-36.736
	C0.852,17.109,17.298,0.656,37.588,0.656 M37.588,2.608c19.21,0,34.787,15.579,34.787,34.792c0,19.206-15.577,34.787-34.787,34.787
	c-19.209,0-34.787-15.581-34.787-34.787C2.801,18.187,18.378,2.608,37.588,2.608z M14.101,31.91h7.734v3.081h-7.734V31.91z
	 M37.687,23.91c-4.438-0.015-7.55,4.692-6.937,9.149c0.595,4.34,5.112,7.588,10.224,6.055l18.528-5.558
	c4.45-1.331,3.505-9.555-1.423-9.571L37.687,23.91z M41.411,44.239c1.065,0,1.934,0.865,1.934,1.927
	c0,1.072-0.868,1.938-1.934,1.938c-1.067,0-1.932-0.866-1.932-1.938C39.479,45.104,40.344,44.239,41.411,44.239z M50.893,44.239
	c1.068,0,1.934,0.865,1.934,1.927c0,1.072-0.865,1.938-1.934,1.938c-1.064,0-1.932-0.866-1.932-1.938
	C48.961,45.104,49.828,44.239,50.893,44.239z M22.256,44.239c1.067,0,1.937,0.865,1.937,1.927c0,1.072-0.869,1.938-1.937,1.938
	c-1.067,0-1.932-0.866-1.932-1.938C20.324,45.104,21.189,44.239,22.256,44.239z M41.411,41.458c0.141,0,0.282,0.005,0.42,0.021
	v-0.021h2.72h3.383h2.72v0.005c0.077,0,0.159-0.005,0.239-0.005c2.027,0,3.754,1.281,4.424,3.072h2.057v-2.108l-3.823-2.746
	l1.903-2.657l5.022,3.6l-0.004,0.005h0.012v3.907v1.957v1.153h-5.112c-0.62,1.882-2.391,3.24-4.479,3.24
	c-2.6,0-4.712-2.108-4.712-4.715l0.004-0.06h-0.063v0.06c0,2.606-2.109,4.715-4.71,4.715c-2.087,0-3.862-1.358-4.479-3.24H26.734
	c-0.617,1.882-2.387,3.24-4.478,3.24c-1.954,0-3.63-1.192-4.345-2.885h-3.51h-1.589v-1.585V30.16v-0.002h0.009
	c0-1.356,0.548-2.584,1.436-3.469c0.882-0.885,2.113-1.436,3.471-1.436v-0.007l0,0h9.547h1.59v1.59V44.53h8.125
	C37.653,42.739,39.384,41.458,41.411,41.458z"/>
<path display="none" fill-rule="evenodd" clip-rule="evenodd" fill="#FFFFFF" d="M37.591,0.657
	c20.286,0,36.736,16.451,36.736,36.741c0,20.286-16.45,36.736-36.736,36.736c-20.29,0-36.741-16.45-36.741-36.736
	C0.85,17.108,17.301,0.657,37.591,0.657 M37.591,2.607c19.205,0,34.786,15.579,34.786,34.792c0,19.206-15.581,34.786-34.786,34.786
	c-19.21,0-34.792-15.58-34.792-34.786C2.799,18.186,18.38,2.607,37.591,2.607z M28.605,46.658c-1.303,2.194-3.844,4.032-3.913,6.582
	c-0.052,1.805,1.508,3.801,3.766,3.869c2.255,0.068,4.007-1.714,4.059-3.583C32.585,50.896,29.908,48.946,28.605,46.658z
	 M48.522,17.683H32.11c-4.054,0-8.421,2.682-8.421,8.77v11.645h-1.324c-0.235,0-0.428,0.189-0.428,0.42v3.437
	c0,0.231,0.192,0.425,0.428,0.425h1.324v1.894h10.173v-1.894h1.255c0.236,0,0.429-0.193,0.429-0.425v-3.437
	c0-0.23-0.193-0.42-0.429-0.42h-1.255v-8.138c0-2.013,0.93-2.179,1.894-2.174l12.773,0.06C54.82,27.874,54.809,17.871,48.522,17.683
	z"/>
<path display="none" fill-rule="evenodd" clip-rule="evenodd" fill="#FFFFFF" d="M37.588,0.657
	c20.287,0,36.737,16.451,36.737,36.741c0,20.286-16.45,36.736-36.737,36.736c-20.285,0-36.736-16.45-36.736-36.736
	C0.852,17.108,17.303,0.657,37.588,0.657 M37.588,2.607c19.21,0,34.787,15.579,34.787,34.792c0,19.206-15.577,34.786-34.787,34.786
	c-19.209,0-34.787-15.58-34.787-34.786C2.801,18.186,18.378,2.607,37.588,2.607z M30.514,20.978c0.801,0,1.452,0.649,1.452,1.451
	c0,0.801-0.651,1.451-1.452,1.451c-0.797,0-1.449-0.649-1.449-1.451C29.065,21.626,29.716,20.978,30.514,20.978z M30.034,39.516
	c0.887,0,1.611,0.727,1.611,1.615c0,0.888-0.725,1.611-1.611,1.611c-0.892,0-1.616-0.724-1.616-1.611
	C28.417,40.242,29.142,39.516,30.034,39.516z M27.368,20.048L27.368,20.048c1.71-2.051,4.783-2.335,6.835-0.63l17.917,13.19v5.455
	l-8.006-5.879c-1.817-1.483-3.067,0.36-1.715,1.564l9.721,8.952v6.577L33.016,31.532v5.193c1.41,0.959,2.335,2.576,2.335,4.405
	c0,1.821-0.921,3.433-2.318,4.392c0.184,0.146,0.36,0.304,0.527,0.472c1.105,1.105,1.795,2.639,1.795,4.336h0.009v0.009l0,0h-0.009
	c0,1.697-0.69,3.231-1.8,4.346l0.004,0.004c-1.11,1.105-2.644,1.791-4.345,1.796v0.009h-0.004h-0.005v-0.009
	c-1.697-0.005-3.236-0.695-4.35-1.809c-1.105-1.105-1.791-2.64-1.795-4.337h-0.004l0,0v-0.018h0.004
	c0.004-0.316,0.03-0.63,0.073-0.925l0.004-0.017h-0.004l0.017-0.104c0.009-0.042,0.017-0.086,0.026-0.129
	c0.047-0.235,0.099-0.446,0.159-0.643c0.296-0.933,1.291-1.46,2.233-1.166c0.938,0.293,1.461,1.286,1.17,2.229
	c-0.035,0.098-0.056,0.188-0.069,0.262l-0.004,0.012l-0.017,0.112h-0.004c-0.017,0.12-0.025,0.247-0.025,0.367h0.004v0.018l0,0
	h-0.004c0,0.711,0.292,1.363,0.762,1.835c0.468,0.463,1.114,0.753,1.826,0.753v-0.009h0.005h0.004v0.009
	c0.707,0,1.35-0.29,1.821-0.763l0.004,0.004l0.004-0.004c0.467-0.467,0.754-1.114,0.759-1.825h-0.009l0,0V50.33h0.009
	c-0.005-0.711-0.296-1.358-0.763-1.829c-0.468-0.468-1.119-0.759-1.83-0.759v0.01l0,0c-0.986,0-1.787-0.799-1.787-1.784
	c0-0.068,0.004-0.129,0.013-0.197c-1.628-0.908-2.726-2.648-2.726-4.64c0-2.189,1.328-4.075,3.222-4.889v-9.423
	C25.95,25.104,25.688,22.079,27.368,20.048z"/>
<path display="none" fill-rule="evenodd" clip-rule="evenodd" fill="#FFFFFF" d="M37.586,0.656
	c20.291,0,36.741,16.453,36.741,36.743c0,20.286-16.45,36.736-36.741,36.736c-20.285,0-36.736-16.45-36.736-36.736
	C0.85,17.109,17.301,0.656,37.586,0.656 M37.586,2.608c19.21,0,34.791,15.579,34.791,34.792c0,19.206-15.581,34.787-34.791,34.787
	c-19.206,0-34.787-15.581-34.787-34.787C2.799,18.187,18.38,2.608,37.586,2.608z M43.104,16.485c0.703,0,1.27,0.57,1.27,1.271
	c0,0.701-0.566,1.269-1.27,1.269c-0.695,0-1.266-0.567-1.266-1.269C41.838,17.056,42.408,16.485,43.104,16.485z M39.548,18.264
	c0.702,0,1.274,0.567,1.274,1.271c0,0.698-0.572,1.269-1.274,1.269c-0.697,0-1.268-0.57-1.268-1.269
	C38.28,18.831,38.851,18.264,39.548,18.264z M38.603,24.739c0.886,0,1.603,0.72,1.603,1.605c0,0.885-0.717,1.605-1.603,1.605
	c-0.888,0-1.607-0.72-1.607-1.605C36.995,25.459,37.715,24.739,38.603,24.739z M37.158,29.712c1.152,0,2.086,0.934,2.086,2.087
	c0,1.152-0.934,2.087-2.086,2.087c-1.149,0-2.083-0.935-2.083-2.087C35.075,30.646,36.009,29.712,37.158,29.712z M37.737,44.248
	h-7.118l3.797-7.77V23.989h3.325h3.265v12.489l3.715,7.77H37.737z M37.741,58.312h12.598c2.709,0,2.627-1.816,2.087-2.871
	l-9.787-19.056V24.175c1.357-0.186,1.27-1.943,0-1.943h-9.894c-1.295,0-1.389,1.757,0,1.943v12.209l-9.99,19.056
	c-0.552,1.055-0.634,2.871,2.126,2.871H37.741z"/>
<path fill-rule="evenodd" clip-rule="evenodd" fill="#FFFFFF" d="M37.591,0.656c20.286,0,36.736,16.453,36.736,36.743
	c0,20.286-16.45,36.736-36.736,36.736c-20.286,0-36.741-16.45-36.741-36.736C0.85,17.109,17.305,0.656,37.591,0.656 M37.591,2.608
	c19.211,0,34.786,15.579,34.786,34.792c0,19.206-15.575,34.787-34.786,34.787c-19.21,0-34.792-15.581-34.792-34.787
	C2.799,18.187,18.38,2.608,37.591,2.608z M25.143,32.515c0.908,0.745,1.816,1.491,2.725,2.241
	c3.866-5.685,13.091-8.836,22.417-4.776C42.471,23.938,29.445,26.178,25.143,32.515z M19.199,44.204l-6.531,4.191
	c-0.553,1.526,1.419,2.827,2.729,2.827h43.653c3.707,0,5.163-2.793,1.169-4.189c0.489-4.872-2.069-15.633-7.892-19.588
	c-6.719-4.559-16.858-4.806-24.264-2.239l-3.41,6.04C21.016,35.308,19.199,39.629,19.199,44.204z"/>
</svg>
